<svg width="196" height="20" viewBox="0 0 196 20" fill="none" xmlns="http://www.w3.org/2000/svg">
<path d="M0.368 1.144H8.312L14.48 12.256L20.672 1.144H28.328V19H22.808V6.64L15.776 19H12.776L5.744 6.64V19H0.368V1.144ZM41.9911 19.264C40.3911 19.264 39.0071 19.112 37.8391 18.808C36.6711 18.488 35.6711 18.072 34.8391 17.56C34.0231 17.048 33.3511 16.464 32.8231 15.808C32.3111 15.136 31.9031 14.456 31.5991 13.768C31.3111 13.064 31.1111 12.368 30.9991 11.68C30.9031 10.992 30.8551 10.368 30.8551 9.808V1.144H36.4711V9.472C36.4711 10.048 36.5511 10.64 36.7111 11.248C36.8711 11.856 37.1671 12.416 37.5991 12.928C38.0311 13.424 38.6311 13.832 39.3991 14.152C40.1671 14.472 41.1591 14.632 42.3751 14.632C43.5751 14.632 44.5511 14.472 45.3031 14.152C46.0711 13.832 46.6711 13.424 47.1031 12.928C47.5351 12.416 47.8311 11.856 47.9911 11.248C48.1511 10.64 48.2311 10.048 48.2311 9.472V1.144H53.8231V9.808C53.8231 10.368 53.7591 10.992 53.6311 11.68C53.5191 12.368 53.3111 13.064 53.0071 13.768C52.7031 14.456 52.2871 15.136 51.7591 15.808C51.2471 16.464 50.5831 17.048 49.7671 17.56C48.9511 18.072 47.9751 18.488 46.8391 18.808C45.7031 19.112 44.3751 19.264 42.8551 19.264H41.9911ZM61.9288 1.144V14.56H74.3368V19H56.3368V1.144H61.9288ZM78.5317 5.368H70.8517V1.144H91.8757V5.368H84.1717V19H78.5317V5.368ZM99.4991 19H93.9071V1.144H99.4991V19Z" fill="black"/>
<path d="M109.211 5.368H101.531V1.144H122.555V5.368H114.851V19H109.211V5.368ZM143.403 1.144V5.2H130.107V7.84H143.091V11.92H130.107V14.848H143.643V19H124.587V1.144H143.403ZM157.147 19.312C155.419 19.312 153.923 19.168 152.659 18.88C151.411 18.576 150.339 18.184 149.443 17.704C148.563 17.208 147.843 16.648 147.283 16.024C146.739 15.4 146.307 14.76 145.987 14.104C145.683 13.432 145.475 12.776 145.363 12.136C145.251 11.48 145.195 10.888 145.195 10.36V9.664C145.195 9.12 145.243 8.528 145.339 7.888C145.451 7.232 145.651 6.584 145.939 5.944C146.243 5.288 146.667 4.656 147.211 4.048C147.755 3.424 148.467 2.88 149.347 2.416C150.243 1.936 151.323 1.552 152.587 1.264C153.867 0.975999 155.387 0.831999 157.147 0.831999H158.131C159.859 0.831999 161.355 0.959999 162.619 1.216C163.883 1.456 164.955 1.784 165.835 2.2C166.715 2.6 167.427 3.056 167.971 3.568C168.531 4.08 168.963 4.6 169.267 5.128C169.587 5.64 169.803 6.136 169.915 6.616C170.027 7.096 170.083 7.512 170.083 7.864V8.128H164.155C164.123 8.016 164.027 7.8 163.867 7.48C163.723 7.144 163.419 6.808 162.955 6.472C162.507 6.12 161.859 5.816 161.011 5.56C160.179 5.288 159.051 5.152 157.627 5.152C156.283 5.152 155.187 5.288 154.339 5.56C153.491 5.832 152.819 6.192 152.323 6.64C151.843 7.072 151.507 7.568 151.315 8.128C151.139 8.672 151.051 9.224 151.051 9.784V10.072C151.051 10.6 151.147 11.152 151.339 11.728C151.547 12.304 151.899 12.832 152.395 13.312C152.907 13.792 153.587 14.192 154.435 14.512C155.299 14.816 156.379 14.968 157.675 14.968C159.115 14.968 160.259 14.824 161.107 14.536C161.955 14.248 162.603 13.92 163.051 13.552C163.499 13.168 163.787 12.808 163.915 12.472C164.059 12.12 164.147 11.896 164.179 11.8H170.107V12.064C170.107 12.432 170.043 12.872 169.915 13.384C169.803 13.896 169.587 14.424 169.267 14.968C168.947 15.496 168.507 16.024 167.947 16.552C167.387 17.064 166.659 17.528 165.763 17.944C164.883 18.344 163.811 18.672 162.547 18.928C161.299 19.184 159.827 19.312 158.131 19.312H157.147ZM172.048 1.144H177.64V7.648H189.64V1.144H195.232V19H189.64V11.968H177.64V19H172.048V1.144Z" fill="#215EE6"/>
</svg>
