<svg width="1410" height="676" viewBox="0 0 1410 676" fill="none" xmlns="http://www.w3.org/2000/svg">
<circle cx="1107.5" cy="166.5" r="6.5" fill="#215EE6"/>
<circle cx="1108" cy="167" r="7" fill="#215EE6"/>
<circle cx="1255" cy="455" r="7" fill="#8F21E6"/>
<circle cx="811" cy="584" r="7" fill="#8F21E6"/>
<circle cx="89" cy="648" r="7" fill="#8F21E6"/>
<circle cx="75" cy="372" r="7" fill="#8F21E6"/>
<circle cx="374" cy="506" r="7" fill="#8F21E6"/>
<circle cx="535" cy="37" r="7" fill="#8F21E6"/>
<circle cx="772" cy="7" r="7" fill="#8F21E6"/>
<circle cx="169" cy="101" r="7" fill="#215EE6"/>
<circle cx="1230" cy="546" r="7" fill="#215EE6"/>
<circle cx="273" cy="620" r="7" fill="#215EE6"/>
<circle cx="1349" cy="134" r="7" fill="#215EE6"/>
<circle cx="947" cy="613" r="7" fill="#215EE6"/>
<circle cx="7" cy="478" r="7" fill="#215EE6"/>
<circle cx="259" cy="181" r="7" fill="#215EE6"/>
<circle cx="1244" cy="51" r="7" fill="#215EE6"/>
<circle cx="1403" cy="404" r="7" fill="#215EE6"/>
<circle cx="625" cy="669" r="7" fill="#215EE6"/>
<circle cx="421" cy="485" r="7" fill="#215EE6"/>
<circle cx="451" cy="627" r="7" fill="#F5050E"/>
<circle cx="211" cy="499" r="7" fill="#F5050E"/>
<circle cx="352" cy="115" r="7" fill="#F5050E"/>
<circle cx="927" cy="65" r="7" fill="#F5050E"/>
<circle cx="1318" cy="224" r="7" fill="#F5050E"/>
<circle cx="1013" cy="478" r="7" fill="#F5050E"/>
<circle cx="1375" cy="634" r="7" fill="#F5050E"/>
<circle cx="1176" cy="591" r="7" fill="#F5050E"/>
<circle cx="1176" cy="591" r="7" fill="#F5050E"/>
<circle cx="856" cy="669" r="7" fill="#F5050E"/>
<circle cx="28" cy="72" r="7" fill="#F5050E"/>
<circle cx="1087" cy="577" r="7" fill="#215EE6"/>
<circle cx="1230" cy="546" r="7" fill="#215EE6"/>
</svg>
